<?xml version="1.0" encoding="utf-8"?>
<!-- Generator: Adobe Illustrator 16.0.0, SVG Export Plug-In . SVG Version: 6.00 Build 0)  -->
<!DOCTYPE svg PUBLIC "-//W3C//DTD SVG 1.1//EN" "http://www.w3.org/Graphics/SVG/1.1/DTD/svg11.dtd">
<svg version="1.1" id="Layer_1" xmlns="http://www.w3.org/2000/svg" xmlns:xlink="http://www.w3.org/1999/xlink" x="0px" y="0px"
	 width="1400px" height="1400px" viewBox="0 0 1400 1400" enable-background="new 0 0 1400 1400" xml:space="preserve">
<g>
	<rect y="0" fill="#FFFFFF" width="1400" height="1400"/>
	<g>
		<path fill="#005461" d="M1335,1277.6c0,31.7-25.7,57.4-57.4,57.4H122.4c-31.7,0-57.4-25.7-57.4-57.4V122.4
			C65,90.7,90.7,65,122.4,65h1155.2c31.7,0,57.4,25.7,57.4,57.4V1277.6z"/>
		<path fill="#004A57" d="M1153.1,1263.5l150.8-65.4l-128.4-296l-11.9-11V572.9l132-125.6l-28.5-30l13.2-13.6l-28.4-27.6l19.8-23.9
			L1049.9,169l-164.4,199c-11.4-44.6-46.3-79.9-90.8-91.8c-1.4-16.2-6.8-32.2-16.5-46.6c-30.7-45.7-92.5-57.9-138.2-27.2
			c-45.7,30.7-57.9,92.5-27.2,138.2c7,10.4,15.6,19,25.3,25.8c-2.9,10.6-4.4,21.8-4.4,33.4c0,24,6.6,46.5,18.2,65.7h-84.7
			l-37.9-144.4l-4-15.3l-25.8-98.4c-5.7-21.7-27.9-34.7-49.7-29l-279.8,73.3c-21.7,5.7-34.7,27.9-29,49.6l25.8,98.4l4,15.3
			l78.5,299.4c2.4,9.3,8,17,15.2,22.4v162.5c0,2.3,0.2,4.5,0.5,6.7l-8.5-2c-16.8-3.9-33.6,6.6-37.5,23.4l-5.5,23.7l-12.5,54.1
			l-29.4,126.7c-3.9,16.8,6.6,33.6,23.4,37.5l446.1,103.5c16.8,3.9,33.6-6.6,37.5-23.4l29.4-126.7l12.5-54.1l5.5-23.7
			c3.9-16.8-6.6-33.6-23.4-37.5L452,949.4h365.6L806.7,981l26.1,320.5l163.9-13.4l-0.9-10.5l147.4-36.7L1153.1,1263.5z"/>
		<g>
			<g>
				<path fill="#F6D822" d="M761,212.4c30.6,45.7,18.5,107.6-27.2,138.2c-45.7,30.7-107.6,18.5-138.2-27.2
					c-30.6-45.7-18.5-107.6,27.2-138.2C668.5,154.5,730.4,166.7,761,212.4z"/>
				<g>
					<path fill="#D6BC1D" d="M723.4,335.2c-37.1,24.9-87.5,15-112.4-22.1c-24.9-37.1-15-87.5,22.1-112.4
						c37.1-24.9,87.5-14.9,112.4,22.1C770.5,259.9,760.5,310.3,723.4,335.2z M641.1,212.4c-30.6,20.5-38.8,62.2-18.3,92.8
						c20.6,30.6,62.2,38.8,92.8,18.3c30.6-20.5,38.8-62.2,18.3-92.8C713.3,200,671.7,191.8,641.1,212.4z"/>
				</g>
				<g>
					<path fill="#D6BC1D" d="M647.6,265.4c-5.9-8.9-5-18.9,3.6-27.2l-6.7-10.1l10.3-6.9l6.6,9.8c5.1-2.5,10.6-4.1,15.7-4.4l3,13.3
						c-4.8,0-10.2,1.6-14.5,4.5c-5.8,3.9-7.2,7.9-4.9,11.3c2.4,3.6,6.3,4.2,17.8,2.3c14.8-2.4,24.1-0.3,30.6,9.4
						c6.6,9.9,5.7,20.6-3.4,29.8l6.9,10.2l-10.3,6.9l-6.5-9.7c-6.2,3.5-13.3,5.7-20,5.9l-3.1-13.5c6.1,0.1,12.9-2,17.9-5.4
						c6.5-4.4,8.7-9.6,5.7-14.1c-3.2-4.8-8.4-5.2-18.7-3.3C660.9,277.3,653.2,273.8,647.6,265.4z"/>
				</g>
			</g>
			<g>
				<g>
					<polygon fill="#009C73" points="1278.4,430.1 828.2,858.3 636.6,656.8 1086.8,228.6 					"/>
					<path fill="#FFFFFF" d="M1056.5,312.5L927.7,435.1c38.7-10.6,81.8-0.2,111.3,30.9c29.6,31.1,37.8,74.7,25.3,112.7l128.8-122.5
						c-15.2-16-14.6-41.2,1.4-56.4l-81.6-85.8C1096.9,329.1,1071.7,328.5,1056.5,312.5z"/>
					<path fill="#FFFFFF" d="M876.1,620.9c-29.6-31.1-37.8-74.6-25.3-112.7L721.9,630.8c15.2,16,14.6,41.2-1.4,56.4l81.6,85.8
						c16-15.2,41.2-14.6,56.4,1.4l128.8-122.6C948.7,662.5,905.6,652,876.1,620.9z"/>
					<path fill="#FFFFFF" d="M1016.2,487.6c30.8,32.4,29.5,83.7-2.9,114.5c-32.4,30.8-83.7,29.5-114.5-2.9s-29.5-83.7,2.9-114.5
						S985.4,455.2,1016.2,487.6z"/>
				</g>
				<g>
					
						<rect x="636.2" y="373.4" transform="matrix(0.6969 -0.7171 0.7171 0.6969 -80.5117 834.3606)" fill="#00AB7F" width="621.3" height="278"/>
					<path fill="#FFFFFF" d="M1036.7,277.8L912.8,405.3c38.2-12.1,81.7-3.4,112.4,26.5c30.8,29.9,40.7,73.1,29.7,111.6l123.9-127.5
						c-15.8-15.4-16.2-40.6-0.8-56.4l-85-82.6C1077.8,292.8,1052.5,293.1,1036.7,277.8z"/>
					<path fill="#FFFFFF" d="M868.5,593.1c-30.8-29.9-40.7-73.1-29.7-111.6L714.9,608.9c15.8,15.4,16.2,40.6,0.8,56.4l84.9,82.6
						c15.4-15.8,40.6-16.2,56.4-0.8L981,619.6C942.8,631.7,899.3,622.9,868.5,593.1z"/>
					<path fill="#FFFFFF" d="M1003.3,454.4c32.1,31.2,32.8,82.4,1.6,114.5c-31.2,32.1-82.4,32.8-114.5,1.6
						c-32.1-31.2-32.8-82.4-1.6-114.5C920,423.9,971.3,423.2,1003.3,454.4z"/>
				</g>
				<g>
					<polygon fill="#00BF8F" points="1254.5,335 845,830.7 623.2,647.4 1032.7,151.8 					"/>
					<path fill="#FFFFFF" d="M1011.9,241.7L894.7,383.6c38.4-15.7,84-10.3,118.2,18c34.2,28.3,48.1,72,40,112.7l117.2-141.9
						c-17.6-14.5-20.1-40.5-5.5-58.1l-94.5-78.1C1055.5,253.8,1029.5,256.2,1011.9,241.7z"/>
					<path fill="#FFFFFF" d="M864.8,580.9c-34.2-28.3-48.1-72-40-112.7L707.6,610.1c17.6,14.5,20.1,40.5,5.5,58.1l94.5,78.1
						c14.5-17.6,40.5-20.1,58.1-5.5L983,598.9C944.6,614.6,899,609.2,864.8,580.9z"/>
					<path fill="#FFFFFF" d="M992.2,426.6c35.7,29.5,40.7,82.3,11.2,118c-29.5,35.7-82.3,40.7-118,11.2
						c-35.7-29.5-40.7-82.3-11.2-118C903.7,402.2,956.5,397.1,992.2,426.6z"/>
				</g>
			</g>
			<g>
				<g>
					<path fill="#FF765F" d="M154.4,1114.6c-3.9,16.8,6.6,33.6,23.4,37.5l446.1,103.5c16.8,3.9,33.6-6.6,37.5-23.4l29.4-126.7
						L183.8,987.9L154.4,1114.6z"/>
					<path fill="#FF765F" d="M708.8,1027.8c3.9-16.8-6.6-33.6-23.4-37.5L239.4,886.8c-16.8-3.9-33.6,6.6-37.5,23.4l-5.5,23.7
						l506.9,117.6L708.8,1027.8z"/>
					<polygon fill="#414042" points="196.4,933.8 183.8,987.9 690.8,1105.5 703.3,1051.5 					"/>
				</g>
				<polygon fill="#FFFFFF" points="297.6,1075.9 201.8,1053.6 208,1026.7 303.8,1049 				"/>
				<polygon fill="#FFFFFF" points="413.8,1102.8 318,1080.6 324.2,1053.7 420,1075.9 				"/>
				<polygon fill="#FFFFFF" points="530,1129.8 434.2,1107.6 440.5,1080.7 536.2,1102.9 				"/>
				<polygon fill="#FFFFFF" points="646.2,1156.8 550.4,1134.5 556.6,1107.6 652.4,1129.9 				"/>
				<polygon fill="#FFFFFF" points="574.8,1199.7 479,1177.5 485.2,1150.6 581,1172.8 				"/>
			</g>
			<g>
				<g>
					<polygon fill="#A19BD6" points="149.7,382.5 153.7,397.8 512.2,303.9 508.1,288.6 					"/>
					<path fill="#C1B8FF" d="M232.2,697.3c5.7,21.7,27.9,34.7,49.7,29L561.6,653c21.7-5.7,34.7-27.9,29-49.7l-78.5-299.4l-358.4,94
						L232.2,697.3z"/>
					<path fill="#DBD6FF" d="M482.4,190.2c-5.7-21.7-27.9-34.7-49.7-29l-279.8,73.3c-21.7,5.7-34.7,27.9-29,49.6l25.8,98.4l358.4-94
						L482.4,190.2z"/>
				</g>
				<path fill="#FFFFFF" d="M294.9,455.4c0.9,3.6-1.2,7.3-4.8,8.3l-56.8,14.9c-3.6,0.9-7.3-1.2-8.3-4.8l-14.9-56.8
					c-0.9-3.6,1.2-7.3,4.8-8.3l56.8-14.9c3.6-0.9,7.3,1.2,8.3,4.8L294.9,455.4z"/>
				<path fill="#FFFFFF" d="M391.1,430.2c0.9,3.6-1.2,7.3-4.8,8.3l-56.8,14.9c-3.6,0.9-7.3-1.2-8.3-4.8l-14.9-56.8
					c-0.9-3.6,1.2-7.3,4.8-8.3l56.8-14.9c3.6-0.9,7.3,1.2,8.3,4.8L391.1,430.2z"/>
				<path fill="#FFFFFF" d="M487.3,405c0.9,3.6-1.2,7.3-4.8,8.3l-56.8,14.9c-3.6,0.9-7.3-1.2-8.3-4.8l-14.9-56.8
					c-0.9-3.6,1.2-7.3,4.8-8.3l56.8-14.9c3.6-0.9,7.3,1.2,8.3,4.8L487.3,405z"/>
				<path fill="#FFFFFF" d="M319.6,549.4c0.9,3.6-1.2,7.3-4.8,8.3l-56.8,14.9c-3.6,0.9-7.3-1.2-8.3-4.8l-14.9-56.8
					c-0.9-3.6,1.2-7.3,4.8-8.3l56.8-14.9c3.6-0.9,7.3,1.2,8.3,4.8L319.6,549.4z"/>
				<path fill="#FFFFFF" d="M415.7,524.2c0.9,3.6-1.2,7.3-4.8,8.3l-56.8,14.9c-3.6,0.9-7.3-1.2-8.3-4.8l-14.9-56.8
					c-0.9-3.6,1.2-7.3,4.8-8.3l56.8-14.9c3.6-0.9,7.3,1.2,8.3,4.8L415.7,524.2z"/>
				<path fill="#FFFFFF" d="M536.6,593c0.9,3.6-1.2,7.3-4.8,8.3l-56.8,14.9c-3.6,0.9-7.3-1.2-8.3-4.8l-39.5-150.8
					c-0.9-3.6,1.2-7.3,4.8-8.3l56.8-14.9c3.6-0.9,7.3,1.2,8.3,4.8L536.6,593z"/>
				<path fill="#FFFFFF" d="M344.2,643.4c0.9,3.6-1.2,7.3-4.8,8.3l-56.8,14.9c-3.6,0.9-7.3-1.2-8.3-4.8l-14.9-56.8
					c-0.9-3.6,1.2-7.3,4.8-8.3l56.8-14.9c3.6-0.9,7.3,1.2,8.3,4.8L344.2,643.4z"/>
				<path fill="#FFFFFF" d="M440.4,618.2c0.9,3.6-1.2,7.3-4.8,8.3l-56.8,14.9c-3.6,0.9-7.3-1.2-8.3-4.8l-14.9-56.8
					c-0.9-3.6,1.2-7.3,4.8-8.3l56.8-14.9c3.6-0.9,7.3,1.2,8.3,4.8L440.4,618.2z"/>
			</g>
			<g>
				<path fill="#FFFFFF" d="M1146.4,882.1c0,27.6-22.4,50.1-50.1,50.1H297.4c-27.6,0-50.1-22.4-50.1-50.1V498.3
					c0-27.6,22.4-50.1,50.1-50.1h798.9c27.6,0,50.1,22.4,50.1,50.1V882.1z"/>
				<rect x="357.9" y="479.6" fill="#414042" width="684.2" height="421.3"/>
				<path fill="#A7A9AC" d="M294,777.8c0,4.2-3.4,7.6-7.6,7.6l0,0c-4.2,0-7.6-3.4-7.6-7.6V602.6c0-4.2,3.4-7.7,7.6-7.7l0,0
					c4.2,0,7.6,3.4,7.6,7.7V777.8z"/>
				<path fill="#A7A9AC" d="M1098.1,751c0,2.9-2.4,5.3-5.3,5.3l0,0c-2.9,0-5.3-2.4-5.3-5.3V629.5c0-2.9,2.4-5.3,5.3-5.3l0,0
					c2.9,0,5.3,2.4,5.3,5.3V751z"/>
				<g>
					<defs>
						<rect id="SVGID_1_" x="357.9" y="479.6" width="684.2" height="421.3"/>
					</defs>
					<clipPath id="SVGID_2_">
						<use xlink:href="#SVGID_1_"  overflow="visible"/>
					</clipPath>
					<g clip-path="url(#SVGID_2_)">
						<rect x="557.2" y="736" fill="#3776BF" width="285.1" height="164.9"/>
						<rect x="675.7" y="736" fill="#FFFFFF" width="48.7" height="164.9"/>
						<path fill="#FFFFFF" d="M848.6,601.8c-9.8-23-36.4-33.8-59.4-24c-2.9,1.2-5.6,2.7-8.1,4.5c-2.3,1.6-4.5,3.4-6.4,5.4l-0.6,0.6
							l-73.9,76.6l106.4-0.1h0.9c2.8,0,5.6-0.3,8.4-0.9c3-0.6,5.9-1.5,8.8-2.7C847.7,651.4,858.4,624.8,848.6,601.8z M819.7,649.7
							c-2.1,0.9-4.2,1.5-6.4,2c-2,0.4-4,0.6-6,0.6l-77.7,0.1l54-56c1.3-1.4,2.9-2.7,4.5-3.8c1.8-1.3,3.8-2.4,5.9-3.2
							c4.1-1.7,8.4-2.6,12.8-2.6c13.2,0,25,7.8,30.2,20C844.2,623.3,836.4,642.6,819.7,649.7z"/>
						<path fill="#FFFFFF" d="M624.9,587.7c-1.9-2-4.1-3.8-6.4-5.4c-2.5-1.7-5.2-3.2-8.1-4.5c-23-9.8-49.6,0.9-59.5,24
							c-9.8,23,0.9,49.6,24,59.5c2.9,1.2,5.9,2.1,8.9,2.7c2.8,0.6,5.6,0.8,8.3,0.9h0.9l106.4,0.1l-73.9-76.6L624.9,587.7z
							 M592.1,652.3c-1.9,0-3.9-0.2-5.9-0.6c-2.2-0.4-4.4-1.1-6.4-2c-16.6-7.1-24.4-26.4-17.3-43c5.2-12.1,17-20,30.2-20
							c4.4,0,8.7,0.9,12.8,2.6c2.1,0.9,4,2,5.9,3.2c1.6,1.1,3.2,2.5,4.6,3.9l53.9,55.9L592.1,652.3z"/>
						<path fill="#FF765F" d="M719.9,667.6c0.8-2.2,1.3-4.6,1.3-7.1c0-11.7-9.5-21.2-21.2-21.2c-11.7,0-21.2,9.5-21.2,21.2
							c0,2.5,0.5,4.9,1.3,7.1H719.9z"/>
						<g>
							<rect x="542.1" y="677.4" fill="#3776BF" width="315.9" height="44"/>
							<rect x="542.1" y="721.4" fill="#326AAB" width="315.9" height="14.6"/>
						</g>
						<rect x="675.7" y="677.4" fill="#FFFFFF" width="48.7" height="58.6"/>
						<rect x="675.7" y="721.4" fill="#DBDBDB" width="48.7" height="14.6"/>
					</g>
					<g clip-path="url(#SVGID_2_)">
						<rect x="875.5" y="793.1" fill="#FF765F" width="186.4" height="107.8"/>
						<rect x="952.9" y="793.1" fill="#FFFFFF" width="31.8" height="107.8"/>
						<path fill="#FFFFFF" d="M1065.9,705.3c-6.4-15.1-23.8-22.1-38.9-15.7c-1.9,0.8-3.7,1.8-5.3,2.9c-1.5,1.1-2.9,2.2-4.2,3.5
							l-0.4,0.4l-48.3,50.1l69.6-0.1h0.6c1.8,0,3.6-0.2,5.5-0.6c2-0.4,3.9-1,5.8-1.8C1065.3,737.8,1072.4,720.4,1065.9,705.3z
							 M1047.1,736.7c-1.3,0.6-2.8,1-4.2,1.3c-1.3,0.3-2.6,0.4-3.9,0.4l-50.8,0.1l35.3-36.6c0.9-0.9,1.9-1.8,3-2.5
							c1.2-0.8,2.5-1.5,3.9-2.1c2.7-1.1,5.5-1.7,8.4-1.7c8.6,0,16.4,5.1,19.8,13.1C1063.1,719.4,1058,732,1047.1,736.7z"/>
						<path fill="#FFFFFF" d="M919.7,696.1c-1.3-1.3-2.7-2.5-4.2-3.5c-1.6-1.1-3.4-2.1-5.3-2.9c-15.1-6.4-32.5,0.6-38.9,15.7
							c-6.4,15.1,0.6,32.5,15.7,38.9c1.9,0.8,3.8,1.4,5.8,1.8c1.8,0.4,3.6,0.5,5.5,0.6h0.6l69.6,0.1l-48.3-50.1L919.7,696.1z
							 M898.3,738.4c-1.2,0-2.6-0.2-3.8-0.4c-1.4-0.3-2.8-0.7-4.2-1.3c-10.9-4.6-16-17.3-11.3-28.1c3.4-7.9,11.1-13.1,19.7-13.1
							c2.9,0,5.7,0.6,8.4,1.7c1.4,0.6,2.6,1.3,3.8,2.1c1.1,0.7,2.1,1.6,3,2.6l35.2,36.6L898.3,738.4z"/>
						<path fill="#3776BF" d="M981.8,748.4c0.5-1.5,0.9-3,0.9-4.6c0-7.7-6.2-13.9-13.9-13.9c-7.7,0-13.9,6.2-13.9,13.9
							c0,1.6,0.3,3.2,0.9,4.6H981.8z"/>
						<g>
							<rect x="865.6" y="754.8" fill="#FF765F" width="206.5" height="28.7"/>
							<rect x="865.6" y="783.5" fill="#EB6D57" width="206.5" height="9.6"/>
						</g>
						<rect x="952.9" y="754.8" fill="#FFFFFF" width="31.8" height="38.3"/>
						<rect x="952.9" y="783.5" fill="#DBDBDB" width="31.8" height="9.6"/>
					</g>
					<g clip-path="url(#SVGID_2_)">
						<rect x="308.2" y="777.7" fill="#00BF8F" width="213" height="123.2"/>
						<rect x="396.7" y="777.7" fill="#FFFFFF" width="36.4" height="123.2"/>
						<path fill="#FFFFFF" d="M525.9,677.4c-7.3-17.2-27.2-25.2-44.4-17.9c-2.2,0.9-4.2,2.1-6.1,3.3c-1.7,1.2-3.3,2.6-4.8,4
							l-0.5,0.5l-55.2,57.2l79.5-0.1h0.7c2.1,0,4.2-0.2,6.2-0.7c2.2-0.5,4.4-1.1,6.6-2.1C525.2,714.5,533.2,694.6,525.9,677.4z
							 M504.3,713.2c-1.5,0.7-3.2,1.2-4.8,1.5c-1.5,0.3-3,0.5-4.5,0.5l-58,0.1l40.3-41.8c1-1,2.2-2,3.4-2.9c1.4-0.9,2.9-1.8,4.4-2.4
							c3.1-1.3,6.3-2,9.6-2c9.9,0,18.7,5.9,22.6,14.9C522.5,693.5,516.7,707.9,504.3,713.2z"/>
						<path fill="#FFFFFF" d="M358.7,666.9c-1.5-1.5-3.1-2.8-4.8-4c-1.9-1.3-3.9-2.4-6.1-3.3c-17.2-7.3-37.1,0.7-44.4,17.9
							c-7.3,17.2,0.7,37.1,17.9,44.4c2.2,0.9,4.4,1.6,6.6,2.1c2.1,0.4,4.2,0.6,6.2,0.7h0.7l79.5,0.1l-55.2-57.2L358.7,666.9z
							 M334.2,715.2c-1.4,0-2.9-0.2-4.4-0.5c-1.6-0.3-3.3-0.8-4.8-1.5c-12.4-5.3-18.2-19.7-13-32.1c3.9-9.1,12.7-14.9,22.6-14.9
							c3.3,0,6.5,0.7,9.6,2c1.6,0.7,3,1.5,4.4,2.4c1.2,0.9,2.4,1.8,3.5,2.9l40.3,41.8L334.2,715.2z"/>
						<path fill="#FF765F" d="M429.7,726.6c0.6-1.7,1-3.4,1-5.3c0-8.8-7.1-15.9-15.9-15.9c-8.8,0-15.9,7.1-15.9,15.9
							c0,1.9,0.4,3.6,1,5.3H429.7z"/>
						<g>
							<rect x="296.8" y="733.9" fill="#00BF8F" width="236" height="32.8"/>
							<rect x="296.8" y="766.8" fill="#00AB80" width="236" height="10.9"/>
						</g>
						<rect x="396.7" y="733.9" fill="#FFFFFF" width="36.4" height="43.8"/>
						<rect x="396.7" y="766.8" fill="#DBDBDB" width="36.4" height="10.9"/>
					</g>
				</g>
			</g>
			<g>
				<path fill="#F6D822" d="M872.3,382.5c0,70.6-57.3,127.9-127.9,127.9c-70.6,0-127.9-57.3-127.9-127.9
					c0-70.6,57.3-127.9,127.9-127.9C815,254.6,872.3,311.9,872.3,382.5z"/>
				<g>
					<path fill="#D6BC1D" d="M744.4,486.6c-57.4,0-104-46.7-104-104s46.7-104,104-104c57.4,0,104,46.7,104,104
						S801.8,486.6,744.4,486.6z M744.4,296.6c-47.4,0-85.9,38.5-85.9,85.9c0,47.4,38.5,85.9,85.9,85.9c47.4,0,85.9-38.5,85.9-85.9
						C830.3,335.2,791.8,296.6,744.4,296.6z"/>
				</g>
				<g>
					<path fill="#D6BC1D" d="M713.4,357.9c0-13.7,8.2-23.7,23.4-26.4v-15.5h15.9v15.2c7.2,0.9,14.3,3.2,19.9,6.6l-6.3,16.3
						c-5.2-3.4-12-5.6-18.6-5.6c-9,0-13.3,3.3-13.3,8.5c0,5.6,3.7,9,17.3,15.2c17.6,8,25.9,16.9,25.9,32c0,15.3-8.6,26-24.9,29.3
						v15.8h-15.9v-15c-9.1-0.7-18.3-3.5-25.5-8l6.3-16.6c6.5,4.4,15.2,7,22.9,7c10,0,16.2-4,16.2-11c0-7.4-5.2-11.5-17.6-16.9
						C719.2,380.1,713.4,370.9,713.4,357.9z"/>
				</g>
			</g>
			<g>
				<g>
					<polygon fill="#FF765F" points="1007.9,951.3 1135.9,1246.3 1286.7,1180.9 1158.2,884.9 1098.1,829.1 1008.2,868.1 					"/>
					<g>
						<path fill="#FFFFFF" d="M1111.2,1076.1c-6.5-15-2.2-29.9,13-40l-7.4-17l17.4-7.6l7.2,16.6c8.4-2.4,17.1-3.2,24.9-2.2l0.9,20.9
							c-7.3-1.3-15.8-0.4-23,2.7c-9.9,4.3-13,9.9-10.6,15.6c2.7,6.1,8.3,8,26.2,8.4c23,0.4,36.4,6.2,43.6,22.7
							c7.3,16.7,2.9,32.6-13.4,43.9l7.5,17.3l-17.4,7.6l-7.1-16.4c-10.3,3.5-21.7,4.8-31.7,3.4l-1-21.2c9.2,1.8,20,0.5,28.4-3.2
							c11-4.8,15.8-12.1,12.5-19.7c-3.5-8.1-11.2-10.1-27.2-10.2C1128.1,1097.6,1117.4,1090.3,1111.2,1076.1z"/>
					</g>
					<path fill="#005461" d="M1090.8,880c4.9,11.3-0.3,24.4-11.6,29.3c-11.3,4.9-24.4-0.3-29.3-11.6c-4.9-11.3,0.3-24.4,11.6-29.3
						C1072.8,863.5,1085.9,868.7,1090.8,880z"/>
					<path fill="#808285" d="M1078.5,879.8c2.4,5.6-0.1,12.1-5.7,14.5l0,0c-5.6,2.4-12.1-0.1-14.5-5.7l-25.3-58.3
						c-2.4-5.6,0.1-12.1,5.7-14.5l0,0c5.6-2.4,12.1,0.1,14.5,5.7L1078.5,879.8z"/>
				</g>
				<g>
					<polygon fill="#F6D822" points="899.5,948.7 977.1,1260.8 1136.7,1221.1 1058.8,908 1008.7,843.1 913.6,866.7 					"/>
					<g>
						<path fill="#FFFFFF" d="M980.9,1088.8c-3.9-15.8,2.7-29.8,19.4-37.3l-4.5-18l18.4-4.6l4.4,17.6c8.6-1,17.4-0.4,25,1.9
							l-2.6,20.7c-7-2.5-15.5-3-23.2-1.1c-10.5,2.6-14.5,7.7-13,13.6c1.6,6.5,6.9,9.3,24.5,12.6c22.6,4.2,34.9,12.1,39.2,29.5
							c4.4,17.7-2.5,32.6-20.4,41.1l4.6,18.3l-18.4,4.6l-4.3-17.3c-10.7,1.8-22.2,1.2-31.8-1.9l2.5-21.1c8.7,3.3,19.6,3.8,28.6,1.5
							c11.6-2.9,17.6-9.3,15.6-17.4c-2.1-8.6-9.4-11.9-25.2-14.5C994,1112.8,984.7,1103.8,980.9,1088.8z"/>
					</g>
					<path fill="#005461" d="M993.1,892c3,11.9-4.3,24-16.3,27c-12,3-24-4.3-27-16.3c-3-11.9,4.3-24,16.3-27
						C978,872.8,990.1,880,993.1,892z"/>
					<path fill="#808285" d="M981,889.8c1.5,5.9-2.1,11.9-8,13.4l0,0c-5.9,1.5-11.9-2.1-13.4-8l-15.3-61.7c-1.5-5.9,2.1-11.9,8-13.4
						l0,0c5.9-1.5,11.9,2.1,13.4,8L981,889.8z"/>
				</g>
				<g>
					<polygon fill="#00BF8F" points="789.5,963.8 815.7,1284.3 979.5,1270.9 953.3,949.4 914.3,877.2 816.7,885.1 					"/>
					<g>
						<path fill="#FFFFFF" d="M847.2,1115.2c-1.3-16.3,7.5-29,25.2-33.7l-1.5-18.5l18.9-1.5l1.5,18.1c8.7,0.4,17.3,2.5,24.3,5.9
							l-5.9,20c-6.5-3.6-14.9-5.5-22.7-4.8c-10.7,0.9-15.5,5.2-15,11.3c0.5,6.6,5.3,10.3,22.1,16.4c21.7,7.8,32.5,17.6,33.9,35.5
							c1.5,18.2-7.7,31.8-26.8,37.3l1.5,18.8l-18.9,1.5l-1.5-17.8c-10.9,0-22.1-2.4-31.1-7l5.9-20.4c8.1,4.7,18.7,6.9,28,6.1
							c11.9-1,18.9-6.3,18.2-14.6c-0.7-8.8-7.3-13.2-22.5-18.4C856.3,1141,848.5,1130.6,847.2,1115.2z"/>
					</g>
					<path fill="#005461" d="M891,922.9c1,12.3-8.1,23-20.4,24c-12.3,1-23-8.1-24-20.4c-1-12.3,8.1-23,20.4-24
						C879.3,901.5,890,910.7,891,922.9z"/>
					<path fill="#808285" d="M879.4,918.9c0.5,6.1-4,11.4-10.1,11.9l0,0c-6.1,0.5-11.4-4-11.9-10.1l-5.2-63.3
						c-0.5-6.1,4-11.4,10.1-11.9l0,0c6.1-0.5,11.4,4,11.9,10.1L879.4,918.9z"/>
				</g>
			</g>
			<g>
				<polygon fill="#5485FF" points="448.4,185.3 141.8,265.7 163,346.3 467.3,261.7 				"/>
				<polygon fill="#4873E0" points="480.5,270.1 457.7,182.9 448.4,185.3 467.3,261.7 163,346.3 164.7,352.9 				"/>
			</g>
		</g>
	</g>
</g>
</svg>
