<?xml version="1.0" encoding="utf-8"?>
<!-- Generator: Adobe Illustrator 16.0.0, SVG Export Plug-In . SVG Version: 6.00 Build 0)  -->
<!DOCTYPE svg PUBLIC "-//W3C//DTD SVG 1.1//EN" "http://www.w3.org/Graphics/SVG/1.1/DTD/svg11.dtd">
<svg version="1.1" id="objects" xmlns="http://www.w3.org/2000/svg" xmlns:xlink="http://www.w3.org/1999/xlink" x="0px" y="0px"
	 width="1400px" height="980px" viewBox="0 0 1400 980" enable-background="new 0 0 1400 980" xml:space="preserve">
<rect fill="#F3FFFD" width="1400" height="980"/>
<g>
	<ellipse fill="#D3D3D3" cx="984.912" cy="871.557" rx="191.503" ry="34.878"/>
	<path fill="#FFBB88" d="M723.519,469.241h-4.154c0.675-0.195,1.364-0.3,2.084-0.3S722.858,469.046,723.519,469.241z"/>
	<ellipse fill="#89837E" cx="721.441" cy="481.279" rx="9.563" ry="13.5"/>
	<g>
		<path fill="#0D332E" d="M1018.465,811.622c-4.836,0-4.836,7.5,0,7.5C1023.303,819.122,1023.303,811.622,1018.465,811.622z"/>
		<path fill="#FFBB88" d="M993.025,648.224c0,0,84.629,2.399,97.129,10.4c12.498,8.001,24-5.227,43.5,16.887
			c0,0,6.498,24.111-17,44.112c0,0-22.002,40.503-42,56.003c-20.002,15.5-20.002,35-20.002,35s-28.5,42-36,2.002
			c0,0,24-34.066,31.5-59.035c7.5-24.967,21.004-46.468,23.502-45.466c2.5,0.999-29-3.006-35.502,2.247
			c-6.499,5.253-24.499,8.751-24.499,8.751S948.397,649.82,993.025,648.224z"/>
		<path fill="#EF9D73" d="M987.166,657.514c0,0,9.869,1.014,22.244,6.264s28.5,9.478,21.75,40.737c0,0,28.5-12.987,43.125-13.737
			s12-12,19.875-13.125s-11.936,29.499,4.5,37.125c16.438,7.626-43.992,30.75-55.746,63.374
			c-11.754,32.625-17.934,37.443-13.719,41.223c4.215,3.777-13.598,2.84-9.848-7.285s10.758-12.504,24.973-43.47
			c14.215-30.967,9.697-36.498,27.705-60.357c0,0-25.408-2.443-36.137,3.63s-17.104,7.011-21.416,5.698
			S987.166,657.514,987.166,657.514z"/>
		<path fill="#CE8261" d="M1063.598,707.813c0,0,17.49-2.004,21.025-9.709c3.537-7.702,1.85,5.985-8.838,16.485
			s-24.68,37.866-26.037,41.259c-1.354,3.393,8.77-32.728,22.277-47.587C1072.025,708.262,1064.25,707.928,1063.598,707.813z"/>
		<path fill="#297770" d="M1111.904,853.122c-11.504,10.004-52.5,5.504-58.244,3.645c-5.76-1.875-8.506-0.391-8.506-0.391
			c-30,2.25-43.004-6-39.75-7.5c1.291-0.6,2.355-3.48,3.227-7.471c0.824-3.75,1.5-8.504,2.084-13.273
			c0.344-2.91,0.659-5.818,0.945-8.506c0.81-7.619,3.885-8.85,5.954-8.773c1.142,0.043,1.95,0.465,1.95,0.465
			s-9.539,2.371,9.631,8.055s26.744-9.99,26.744-9.99c1.547,9.494,21.211,18.75,21.211,18.75
			C1085.4,838.632,1123.41,843.132,1111.904,853.122z"/>
		<path fill="#1F5B54" d="M1010.535,848.353c0,0-1.74-1.77-1.904-6.947c-0.092-2.984,0.329-7.078,1.904-12.629
			c0.06-0.227,0.119-0.434,0.18-0.645c3.584-13.125,0.12-15.404,6.899-17.279c1.142,0.043,1.95,0.465,1.95,0.465
			s-9.539,2.371,9.631,8.055c0,0,14.744,25.695,26.762,28.98C1067.957,851.651,1023.66,856.317,1010.535,848.353z"/>
		<path fill="#297770" d="M929.899,547.249c0,0-3.515,7.002-8.546,16.784c-5.451,45.466-30.428,58.271-34.326,60.091
			c-5.625,2.625-19.875,13.125-19.875,17.25s12.766,7.875,21.57,7.125s87.555-1.125,99.555,10.125c0,0,6.75-12.75,6.375-17.25
			s8.625-12.75,8.625-12.75s6.375-7.125,13.125-22.125s19.875-7.5,26.25-30.75s0-46.125,0-46.125l-58.125-27.75L929.899,547.249z"/>
		<path fill="#1F5B54" d="M867.152,641.374c0,0,44.958-1.081,50.232,6.85c0,0,52.528,1.125,61.152,6.776
			c8.623,5.651-9.629-16.099-34.628-19.348c-24.999-3.252,5.502-23.253,26.751-15.252s-1.251-17.25-19.75-18.75
			c-18.5-1.5,2.5-5.505,18,3.243c15.499,8.751-5.867-10.752-24.059-11.751c-18.192-0.999,8.309-6.501,17.309-4.5
			s-5.75-5.54-15-8.394c-9.251-2.856,22.999-16.597,27.75-30.598c0,0,12.943-21.173,28.314-17.695c0,0-5.597-2.133-6.086-2.309
			c-0.489-0.179-7.096-2.514-7.096-2.514s-40.445,45.331-60.508,20.581c0,0-10.205,14.953-9.134,22.852
			s-10.804,42.246-30.741,52.166S867.209,639.596,867.152,641.374z"/>
		<path fill="#FFBB88" d="M1003.871,533.163c0,0-0.082,25.459,18.167,25.711c18.251,0.249,4.122-62.654,4.122-62.654
			s-5.871-45.598,3.378-48.346c9.251-2.751,13.249,3.469,19.001-1.515c0,0,18.75-33.478-2.25-74.228s-94.25-10.502-68.501,26.998
			l6.251,48.249"/>
		<path fill="#CE8261" d="M987.285,430.105c0,0,27.516,18.328,46.195,17.063c0,0-18.123-8.716-3.848,68.695
			c0,0-25.055,34.175-15.326,40.98c0,0-16.563-5.49-9.043-53.528l-28.854-31.122l6.412-42.088H987.285z"/>
		<path fill="#0D332E" d="M901.895,850.751c-0.258-1.719-1.491-4.4-0.753-6.111c0.97-2.252-0.073-6.025-3.239-5.643
			c-2.791,0.34-5.699,1.094-7.58,3.357c-2.276,2.74-2.051,5.994-0.533,9.035c0.873,1.75,3.231,2.266,4.901,1.451
			c0.368,1.959,2.824,3.008,4.585,2.525C901.42,854.774,902.196,852.771,901.895,850.751z"/>
		<path fill="#FFBB88" d="M913.651,648.253c0,0,65.001-1.638,93.501,18.861c0,0,30.002,1.998,20.001,32.499s-26.501,36-26.501,36
			s-40.999,55.001-47.5,62.501c-6.5,7.5-21.999,34.502-17.499,42.5c4.5,8.002-34.5,30-38.501,10.5c0,0,1.875-14.742,6.75-19.617
			s26.25-61.873,28.125-66.373s14.25-38.25,22.5-45c0,0-18.75,4.5-24.75,7.125s-54.395-0.768-67.51-21.445
			C849.152,685.123,913.651,648.253,913.651,648.253z"/>
		<path fill="#32323E" d="M867.152,641.374c0,0-31.875,26.25-1.875,69c0,0-8.25-8.625,1.875-17.25s37.869-42.047,48.373-44.836
			C926.027,645.499,878.402,638.374,867.152,641.374z"/>
		<path fill="#28160B" d="M963.275,435.124c0,0-5.561-0.938-6.498,4.5s-30.324,14.467-15.725,58.515s39.1-46.793,26.35-53.279
			c0,0,3.542,0.686,4.396-2.9C972.652,438.373,965.899,431.872,963.275,435.124z"/>
		<path fill="#FFBB88" d="M951.567,484.428c0,0-26.414,24.196-20.915,65.695c0,0,19.295,22.406,66-30.583L951.567,484.428z"/>
		<path fill="#9B9692" d="M1228.834,478.609c0,3.99-2.057,7.213-4.59,7.213c-0.121,0-0.24,0-0.346-0.015v0.015h-24.496v-14.443
			h24.496v0.015c0.105-0.015,0.225-0.015,0.346-0.015C1226.777,471.379,1228.834,474.604,1228.834,478.609z"/>
		<path fill="#23201E" d="M1197.135,458.878l-13.115-19.796l-17.021-8.977h-6.332l-11.451,71.789l-1.592,10.025l-1.219,7.62
			l5.449-0.249l22.775-1.017l15.273-12.601l9.5-23.033L1197.135,458.878z M1159.463,444.256l5.422-3.838l7.996,3.838l13.406,21.237
			l-0.713,4.356l-7.729,7.134l-3.615-0.861l-14.768-19.761V444.256z"/>
		<path d="M1191.434,480.127l-1.014-10.277l-1.119-11.396l-11.455-19.192l-17.18-9.155l-22.002,2.953l-16.273,16.239l-6.813,17.341
			l-0.119,0.319l1.641,18.636l0.469,5.338l11.451,20.376l17.385,8.232l0.689,0.328l4.76-0.577l17.254-2.08l15.369-12.694
			l7.232-21.557L1191.434,480.127z M1128.25,485.594h16.359l4.16,5.906l0.445,10.395l0.398,9.094v1.77
			c-0.615-0.094-1.277-0.39-1.99-0.838C1142.248,508.554,1134.303,496.082,1128.25,485.594z M1185.574,469.85l-7.729,7.134
			l-3.615-0.861l-14.768-19.761v-12.105l5.422-3.838l7.996,3.838l13.406,21.237L1185.574,469.85z"/>
		<path fill="#BABABA" d="M1147.715,477.903c0,2.73-2.014,5.086-4.863,6.044c-0.912,0.316-1.904,0.48-2.939,0.48h-282.51v-13.049
			h282.633C1144.287,471.438,1147.715,474.335,1147.715,477.903z"/>
		<path fill="#FFBB88" d="M1163.027,516.499c-7.5-6.375-19.125-34.875-48-52.875s-19.889-22.875-33.014-15.375
			c-13.111,7.5-21.18,13.5-21.18,15.943c0,2.432-16.965-0.732-17.475,2.355c-0.525,3.076,7.918,7.005,16.918,3.451
			c9-3.557,1.307,9.193,7.697,10.875c6.359,1.679-7.5,0.929-7.5,0.929h-10.891c0,0,12.674,45.706,22.275,46.201
			c0,0,28.543,16.245,73.918,14.37S1170.527,522.874,1163.027,516.499z M1122.527,508.999c-5.053-2.807-27.553-7.875-27.553-7.875
			c-4.141-6-17.25-13.5-17.25-13.5c11.609-0.571,4.5-19.875,11.609-17.071C1096.475,473.374,1127.584,511.803,1122.527,508.999z"/>
		<path fill="#FFBB88" d="M827.793,467.298h-4.154c0.675-0.193,1.363-0.299,2.084-0.299S827.132,467.104,827.793,467.298z"/>
		<path fill="#FFBB88" d="M827.809,491.072v0.302h-2.086C826.443,491.374,827.148,491.269,827.809,491.072z"/>
		<path fill="#89837E" d="M1143.033,484.428h-3c1.02,0,1.994-0.164,2.895-0.48L1143.033,484.428z"/>
		<path fill="#23201E" d="M885.902,457.442l-16.319-25.14l-21.181-11.399h-7.875l-14.25,91.169l-1.979,12.735l-1.516,9.677
			l6.78-0.316l28.335-1.289l19.004-16.005l11.82-29.25L885.902,457.442z M839.027,438.874l6.75-4.875l9.945,4.875l16.68,26.971
			l-0.885,5.534l-9.615,9.059l-4.5-1.093l-18.375-25.096V438.874z"/>
		<path d="M820.549,491.374h-20.355c-6.12-10.831-10.666-19.995-10.666-19.995h17.25L820.549,491.374z"/>
		<polygon fill="#89837E" points="846.152,434.749 845.215,453.124 864.816,477.692 855.752,486.874 834.34,454.624 836.59,433.437 
					"/>
		<path d="M878.809,484.428l-1.26-13.049l-1.396-14.476l-14.25-24.375l-21.375-11.625l-27.375,3.75l-20.25,20.625l-8.474,22.02
			l-0.151,0.407l2.041,23.669l0.584,6.779l14.25,25.875l21.631,10.456l0.855,0.419l5.925-0.735l21.464-2.64l19.125-16.125l9-27.375
			L878.809,484.428z M800.193,491.374h20.355l5.174,7.5l0.555,13.198l0.496,11.552v2.25c-0.767-0.12-1.59-0.495-2.475-1.066
			C817.607,520.533,807.723,504.692,800.193,491.374z M871.518,471.379l-9.615,9.059l-4.5-1.093l-18.375-25.096v-15.375l6.75-4.875
			l9.945,4.875l16.68,26.971L871.518,471.379z"/>
		<path fill="#9B9692" d="M835.277,479.192c0,5.807-3.194,10.667-7.469,11.88c-0.66,0.196-1.365,0.302-2.086,0.302h-103.5
			c-5.294,0-9.57-5.461-9.57-12.182c0-5.818,3.195-10.679,7.47-11.895h107.687C832.083,468.514,835.277,473.374,835.277,479.192z"/>
		<path fill="#297770" d="M900.049,838.587c0,0-18.129,10.4-2.763,11.594c15.366,1.191,25.284-22.377,37.7-11.594
			c12.416,10.787,18.916,30.039,39.166,37.037c0,0,9,9.25,0,16.5c-9,7.248-53.25,8.5-63.999-3.252c0,0-26.25,2.002-31.5-5.748
			c0,0,0.999-9.75,4.249-11.502C886.153,869.874,875.193,843.052,900.049,838.587z"/>
		<path fill="#EF9D73" d="M946.805,504.399c0,0-0.283,22.321,32.848,19.225c0,0,10.094,3.407,10.098,3.41
			c0.004,0-31.291,29.467-42.945,27.794c-11.654-1.676,20.23-16.301,2.23-30.176S946.805,504.399,946.805,504.399z"/>
		<path fill="#EF9D73" d="M1069.486,481.727l-11.461,0.076l13.688,18.504c0,0,23.221,15.302,0.146,27.697
			c0,0,32.092,17.543,76.822,14.221c0,0-11.021-13.635,1.729-15.885s-18-2.813-18,11.438s-44.063-15.375-58.875-38.438
			s-7.313-14.813-2.813-14.813L1069.486,481.727z"/>
		<path fill="#FFBB88" d="M1075.652,504.124c-7.754-4.995-19.125-31.875-42-44.071c-22.875-12.179-22.68-23.429-42.93-22.86
			c-7.32,3.932-28.14,9.182-25.14,24.182c0,0-10.86,7.679-10.86,8.25c0,0.568,3.75,0.375,3.75,0.375s-6.51,10.485-4.11,11.851
			c-1.919,1.62-3.825,3.524-5.714,5.774c0,0-13.996,40.5,31.004,36c0,0,16.006,5.25,24,8.505c7.996,3.24,71.746,6.24,78.256-13.5
			C1081.908,518.629,1083.408,509.119,1075.652,504.124z M1011.333,493.999c-1.14-0.105-12.076-12.419-26.296-17.414
			c12.195-14.745,12.45-16.022,12.181-16.022c0.899-0.343,6.556-1.184,22.755,21.99c0,0,5.055,9.571,4.86,13.14
			C1024.652,499.249,1013.402,494.192,1011.333,493.999z"/>
		<path fill="#EF9D73" d="M1024.764,494.655c0,0,8.271,20.81,26.646,22.872s-39,3.193-44.438-15.653c0,0-31.313,5.619-37.313-10.802
			s-6.385-7.125-6.385-7.125s23.641-0.431,21.762-7.362c0,0,16.969,6.636,26.296,17.414
			C1011.333,493.999,1026.305,499.732,1024.764,494.655z"/>
		<path fill="#EF9D73" d="M1086.414,471.379c-2.191,6.46-1.752-15.601-1.752-15.601s0.498,10.456,10.248,16.415
			s30,30.208,31.25,36.46c0,0,13.746,6.521,16.873,10.887c3.129,4.362-10.934-6.463-25.277-12.425c0,0,4.412,1.438,4.771,1.884
			c0.363,0.445,1.881,0.557-3.094-5.865C1114.463,496.712,1087.811,463.524,1086.414,471.379z"/>
		<path fill="#EF9D73" d="M954.527,720.124c0,0,13.053-12.472,17.842-20.722c4.791-8.25-5.709,25.5,10.791,27.75
			s-38.25,29.388-78,111.819c0,0,14.543-11.881,23.242-12.07c8.699-0.191-19.492,15.16-23.242,28.582
			c-3.75,13.418-15.451-0.451-1.258-23.986c14.195-23.533,15.503-38.949,21.631-49.648
			C931.66,771.146,936.646,744.101,954.527,720.124z"/>
		<path fill="#EF9D73" d="M865.277,710.374c0,0,79.633,15.278,111.133-19.222s-15.239,28.538-25.119,29.769
			c-9.881,1.23-11.076,12.22-51.354,4.6C899.938,725.521,878.145,721.343,865.277,710.374z"/>
		<path fill="#FFA983" d="M1064.313,520.551c0,0-1.527-11.092,3.85-16.151c5.373-5.06-17.203-17.827-17.893-20.212
			c-0.686-2.385-21.15-26.438-24.846-29.071c-3.696-2.634,5.436,4.005,9.836,5.833c4.402,1.828,22.074,16.972,29.301,29.648
			l7.152,9.706c0,0,3.641,2.525,4.209,3.466S1064.215,511.196,1064.313,520.551z"/>
		<g>
			<path fill="#173F3F" d="M937.14,562.157c0,0,0.206,1.458,0.285,4.011c0.042,1.276,0.067,2.828,0.012,4.604
				c-0.036,1.778-0.168,3.78-0.364,5.962c-0.234,2.177-0.51,4.539-1.023,7.006c-0.507,2.467-1.29,5.023-2.229,7.613
				c-0.958,2.586-1.979,5.232-3.257,7.832c-0.658,1.291-1.392,2.57-2.309,3.764l-0.725,0.877l-0.833,0.806l-1.608,1.452
				c-2.096,1.983-4.19,3.968-6.252,5.92c-2.077,1.943-4.121,3.856-6.1,5.707c-0.982,0.935-1.979,1.822-2.948,2.698
				c-0.963,0.883-1.928,1.723-2.881,2.526c-1.887,1.632-3.719,3.123-5.46,4.472c-0.882,0.667-1.729,1.289-2.63,1.866
				c-0.219,0.144-0.47,0.287-0.731,0.428l-0.245,0.11c-0.096,0.037-0.117,0.063-0.332,0.117c-0.088,0.021-0.177,0.039-0.266,0.051
				l-0.132,0.014c0.069-0.006-0.247,0.021,0.139-0.014l-0.021,0.003l-0.175,0.025c-0.053,0.009-0.129,0.015-0.161,0.025
				c-0.01,0.014-0.02,0.024-0.03,0.032c-0.03,0.023-0.029,0.002-0.104,0.038c-0.166,0.099-0.33,0.171-0.499,0.283
				c-1.361,0.889-2.534,1.932-3.494,2.729c-0.965,0.814-1.7,1.488-2.208,1.941c-0.511,0.451-0.783,0.692-0.783,0.692l-0.229-0.195
				c0,0.001,0.777-1.239,2.354-3.265c0.391-0.513,0.844-1.061,1.363-1.646c0.523-0.587,1.084-1.216,1.827-1.84
				c0.18-0.159,0.404-0.313,0.613-0.472c0.117-0.084,0.332-0.192,0.507-0.274l0.282-0.121l0.179-0.055l0.171-0.049l0.021-0.006
				c0.4-0.037,0.099-0.014,0.183-0.023L897,627.796c-0.031-0.002-0.063,0-0.093,0.008c-0.096,0.036-0.016-0.006-0.004-0.02
				l0.077-0.051c0.15-0.109,0.314-0.224,0.494-0.373c0.711-0.571,1.47-1.276,2.253-2.003c1.579-1.473,3.289-3.068,5.099-4.756
				c0.904-0.852,1.842-1.718,2.825-2.578c0.975-0.868,1.967-1.763,3.007-2.637c2.063-1.77,4.22-3.575,6.437-5.384
				c2.207-1.821,4.566-3.536,6.971-5.204l1.802-1.233l0.8-0.62l0.735-0.72c0.927-1.026,1.702-2.21,2.346-3.453
				c1.263-2.507,2.03-5.206,2.533-7.843c0.5-2.646,0.8-5.229,1.18-7.657c0.385-2.433,0.748-4.733,1.083-6.856
				c0.33-2.134,0.634-4.089,0.902-5.822c0.258-1.738,0.507-3.255,0.711-4.506c0.402-2.504,0.684-3.94,0.684-3.94L937.14,562.157z"/>
		</g>
		<g>
			<path fill="#173F3F" d="M1003.728,532.128c-0.001,0.001,0.109,1.006,0.392,2.742c0.291,1.732,0.718,4.203,1.509,7.078
				c0.387,1.438,0.891,2.969,1.495,4.554c0.608,1.58,1.29,3.245,2.268,4.827c0.951,1.592,2.224,3.09,3.816,4.23
				c1.579,1.16,3.475,1.892,5.41,2.212c1.943,0.307,3.916,0.257,5.827,0.01c0.271-0.047,0.705-0.274,1.035-0.508
				c0.353-0.242,0.664-0.557,0.97-0.869c0.272-0.355,0.574-0.675,0.794-1.072c0.247-0.372,0.473-0.756,0.654-1.17
				c0.203-0.397,0.388-0.799,0.538-1.221c0.153-0.419,0.343-0.814,0.462-1.239c0.236-0.849,0.522-1.66,0.688-2.494
				c0.202-0.821,0.372-1.627,0.493-2.421c0.133-0.791,0.302-1.55,0.367-2.296c0.187-1.484,0.326-2.851,0.414-4.071
				c0.052-0.61,0.1-1.181,0.144-1.709c0.027-0.53,0.051-1.017,0.073-1.456c0.093-1.761,0.174-2.773,0.173-2.773l0.15-0.006
				c-0.001,0,0.117,1.004,0.274,2.773c0.104,0.885,0.13,1.962,0.155,3.201c0.007,0.619,0.057,1.28,0.025,1.976
				c-0.034,0.697-0.069,1.43-0.106,2.194c-0.016,0.767-0.136,1.561-0.218,2.387c-0.066,0.828-0.241,1.673-0.419,2.544
				c-0.335,1.741-0.9,3.568-1.836,5.329c-0.218,0.447-0.49,0.875-0.791,1.294c-0.267,0.436-0.641,0.817-0.98,1.218
				c-0.386,0.371-0.782,0.738-1.255,1.038c-0.489,0.291-0.938,0.578-1.66,0.665c-2.037,0.152-4.145,0.03-6.146-0.521
				c-2.008-0.523-3.873-1.468-5.504-2.645c-1.629-1.188-3.023-2.623-4.213-4.143c-1.168-1.535-2.129-3.162-2.821-4.792
				c-0.696-1.631-1.153-3.242-1.512-4.735c-0.342-1.499-0.561-2.889-0.692-4.125c-0.138-1.236-0.199-2.317-0.208-3.209
				c-0.027-1.781,0.086-2.797,0.085-2.796L1003.728,532.128z"/>
		</g>
		<g>
			<path fill="#173F3F" d="M989.798,527.085c0,0-0.738,0.87-2.076,2.344c-0.666,0.74-1.488,1.625-2.445,2.626
				c-0.933,1.021-2.095,2.078-3.332,3.259c-1.271,1.145-2.576,2.47-4.127,3.672c-0.765,0.612-1.559,1.232-2.383,1.849
				c-0.819,0.622-1.648,1.266-2.544,1.855c-1.786,1.182-3.528,2.528-5.408,3.752c-0.931,0.623-1.837,1.301-2.782,1.928
				c-0.954,0.618-1.912,1.24-2.869,1.861c-1.948,1.193-3.942,2.349-6.045,3.213c-1.023,0.497-2.103,0.84-3.166,1.188
				c-1.049,0.396-2.146,0.598-3.21,0.853c-0.528,0.142-1.07,0.206-1.607,0.264s-1.067,0.132-1.595,0.172
				c-1.06,0.005-2.101,0.077-3.104-0.067c-2.02-0.139-3.87-0.65-5.509-1.159c-0.205-0.064-0.408-0.128-0.609-0.19l-0.15-0.048
				l-0.169-0.059l-0.289-0.106c-0.385-0.147-0.752-0.26-1.126-0.427c-0.373-0.17-0.737-0.334-1.082-0.51
				c-0.329-0.197-0.648-0.389-0.959-0.574c-1.207-0.797-2.111-1.761-2.575-2.71c-0.476-0.944-0.568-1.783-0.549-2.329
				c0.026-0.554,0.134-0.836,0.134-0.836l0.145,0.039c0,0-0.055,0.273,0.007,0.787c0.058,0.508,0.244,1.259,0.779,2.035
				c0.526,0.775,1.382,1.569,2.56,2.181c0.299,0.142,0.608,0.288,0.927,0.438c0.324,0.124,0.659,0.252,1.002,0.383
				c0.343,0.132,0.745,0.23,1.129,0.353l0.295,0.088c0.039,0.011,0.122,0.038,0.125,0.036l0.15,0.037
				c0.2,0.049,0.402,0.1,0.607,0.15c1.637,0.397,3.397,0.764,5.279,0.861c0.938,0.105,1.905,0.013,2.893,0.028
				c0.493-0.037,0.99-0.105,1.493-0.157c0.502-0.059,1.014-0.083,1.518-0.208c1.014-0.209,2.059-0.36,3.077-0.709
				c0.514-0.152,1.031-0.306,1.552-0.459c0.522-0.148,1.019-0.391,1.537-0.571c1.029-0.39,2.079-0.758,3.078-1.268
				c1.01-0.481,2.07-0.881,3.055-1.434c0.993-0.541,1.985-1.081,2.975-1.62c0.97-0.573,1.895-1.215,2.822-1.831
				c1.879-1.204,3.541-2.654,5.171-4.012c1.643-1.344,3.083-2.822,4.571-4.069c0.744-0.623,1.456-1.244,2.132-1.858
				c0.686-0.604,1.348-1.188,1.983-1.749c1.28-1.112,2.479-2.103,3.501-3.04c1.03-0.925,1.941-1.717,2.702-2.359
				c1.517-1.289,2.41-1.999,2.41-1.999L989.798,527.085z"/>
		</g>
		<path fill="#1C1C26" d="M915.525,648.288c0,0-32.49,3.864-42.99,21.114s-0.75-8.625,8.625-16.125s-6.832-3.375-13.166-1.125
			s-5.473-6.932-0.842-10.778C871.785,637.527,918.766,641.049,915.525,648.288z"/>
		<path fill="#89837E" d="M1003.225,484.428l-36.629-0.633c0,0,19.57-0.152,18.441-7.21l4.713-5.206L1003.225,484.428z"/>
		<path fill="#89837E" d="M1009.118,838.972c0,0,37.944,3.078,36.368,8.256c-1.576,5.174,15.844-3.146,22.477,4.424
			c6.629,7.572,32.965-5.18,40.83-6.34c7.867-1.16,10.223,13.479-12.881,13.652c-23.104,0.172-35.924-2.215-44.289-2.758
			c-0.838-0.053-4.477-0.92-8.844,0.326c-4.37,1.244-33.732,1.746-37.863-6.504C1004.916,850.028,1003.576,841.288,1009.118,838.972
			z"/>
		<path fill="#1F5B54" d="M944.852,892.423c0,0-38.117-20.018-40.914-33.898c0,0-5.785,9.084-6.875-8.361
			c0,0-14.592-2.074,2.838-10.746c0,0-16.166-2.391-16.703,19.547c0,0,1.109,13.002-1.027,12.875
			C880.035,871.714,928.293,898.321,944.852,892.423z"/>
		<path fill="#89837E" d="M882.902,871.622c0,0,15.586-1.438,22.757,9.029c7.171,10.469,7.489-6.979,22.743,5.002
			c15.254,11.977,30.965,5.879,39.758,0c0,0,3.516-7.082,9.258-4.791c0,0,4.271,11.156-8.043,13.645
			c-12.313,2.486-37.729,8.59-59.222-5.635c0,0-23.256,2.473-31.5-5.748C878.653,883.124,879.609,871.663,882.902,871.622z"/>
		<path fill="#EF9D73" d="M1044.902,369.498c0,0-17.99,2.903-21.991,17.653s-22.144,47.445-42,37.001
			c-19.856-10.447,18.744-58.251,31.997-59.251C1026.16,363.901,1042.891,365.623,1044.902,369.498z"/>
		<path fill="#28160B" d="M1044.902,369.498c0,0-18.375-7.875-25.125,10.126c-6.75,18-30.75,36.75-36.75,35.25
			s6.295,28.761-4.164,27.691c-10.461-1.066-15.09,0.524-15.588-12.46c-0.498-12.981-6.252-24.606,0-36.981
			s2.127-37.501,28.377-41.626S1044.152,349.998,1044.902,369.498z"/>
		<g>
			<path fill="#E5E5E5" d="M723.66,471.229c0,0,6.378-0.15,15.946-0.375c4.783-0.114,10.365-0.253,16.345-0.345
				c5.979-0.105,12.358-0.218,18.736-0.331c3.189-0.068,6.378-0.137,9.518-0.205c3.14-0.092,6.229-0.118,9.219-0.157
				c2.99,0.003,5.88,0.029,8.621,0.112c2.741,0.062,5.332,0.147,7.724,0.25c9.568,0.383,15.946,1.05,15.946,1.05v0.3
				c0,0-6.378,0.667-15.946,1.05c-2.392,0.103-4.982,0.188-7.724,0.25c-2.741,0.083-5.631,0.109-8.621,0.112
				c-2.989-0.04-6.079-0.065-9.219-0.157c-3.14-0.068-6.328-0.137-9.518-0.205c-6.378-0.113-12.757-0.225-18.736-0.331
				c-5.979-0.092-11.562-0.231-16.345-0.345c-9.568-0.225-15.946-0.375-15.946-0.375V471.229z"/>
		</g>
		<g>
			<path fill="#E5E5E5" d="M761.16,479.435c0,0,4.034-0.154,10.087-0.384c6.052-0.243,14.121-0.432,22.19-0.666
				c2.018-0.068,4.034-0.137,6.021-0.205c1.985-0.083,3.94-0.145,5.831-0.157c1.892,0.003,3.72,0.029,5.453,0.112
				c1.733,0.062,3.373,0.147,4.886,0.25c6.053,0.376,10.087,1.05,10.087,1.05v0.3c0,0-4.034,0.674-10.087,1.05
				c-1.513,0.103-3.152,0.188-4.886,0.25c-1.733,0.083-3.562,0.109-5.453,0.112c-1.891-0.013-3.846-0.074-5.831-0.157
				c-1.986-0.068-4.003-0.137-6.021-0.205c-8.069-0.234-16.139-0.423-22.19-0.666c-6.053-0.23-10.087-0.384-10.087-0.384V479.435z"
				/>
		</g>
		<line fill="none" stroke="#E5E5E5" stroke-width="3" stroke-miterlimit="10" x1="889.66" y1="474.824" x2="949.66" y2="474.824"/>
	</g>
</g>
<g>
	<ellipse fill="#D3D3D3" cx="419.643" cy="871.557" rx="191.503" ry="34.878"/>
	<path fill="#FFBB88" d="M418.229,565.018c0,0,9.262,49.192,10.012,62.692s4.5,28.058,4.5,28.058s-8.921,37.192,3.789,76.192
		c12.711,39,12.755,74.566,12.755,74.566s28.864,31.418,38.41-4.699c0,0-9.954-2.367-12.204-41.367s2.25-77.95-5.25-82.475
		c0,0,3.563-18.775,5.25-25.15s2.75-64.157,2.75-64.157s9-34.354,7.5-72.912c-1.5-38.558-49.574-12.33-64.287,3.307
		C406.74,534.708,418.229,565.018,418.229,565.018z"/>
	<path fill="#EF9D73" d="M473.046,524.176c0,0-30.383,6.72-22.22,64.502c8.164,57.782-18.836,92.971,10.414,91.501
		c29.25-1.469-18.243,10.027-13.996,45.154c4.246,35.127,10.507,74.303,2.127,77.965c0,0-3.777-48.938-6.954-50.014
		c-3.177-1.077-21.177-72.957-9.677-97.517c0,0-4.375-29.238-5.323-36.019c-0.948-6.781-15.177-87.702-15.177-87.702
		S446.852,483.142,473.046,524.176z"/>
	<path fill="#297770" d="M331.805,831.033c0,0-18.129,10.4-2.762,11.593c15.365,1.192,25.284-22.377,37.7-11.593
		c12.416,10.787,18.915,30.038,39.165,37.037c0,0,9,9.249,0,16.5c-9,7.248-53.25,8.499-63.998-3.252c0,0-26.25,2.001-31.5-5.748
		c0,0,0.998-9.75,4.249-11.502C317.91,862.319,306.949,835.498,331.805,831.033z"/>
	<path fill="#1F5B54" d="M376.607,884.869c0,0-38.117-20.019-40.913-33.899c0,0-5.786,9.085-6.876-8.361
		c0,0-14.592-2.074,2.839-10.746c0,0-16.166-2.391-16.704,19.547c0,0,1.109,13.002-1.026,12.876S360.049,890.767,376.607,884.869z"
		/>
	<path fill="#89837E" d="M314.659,864.068c0,0,15.586-1.438,22.757,9.029c7.17,10.468,7.489-6.979,22.742,5.001
		c15.254,11.977,30.966,5.88,39.758,0c0,0,3.516-7.081,9.258-4.79c0,0,4.271,11.156-8.042,13.644s-37.729,8.59-59.222-5.634
		c0,0-23.256,2.473-31.5-5.748C310.41,875.57,311.366,864.109,314.659,864.068z"/>
	<path fill="#FFBB88" d="M428.24,522.71c0,0-22.5,101.5-35,122.657c-3,4.843,1,21.343-12.5,24.343c0,0-6.499,21.578-9,25.539
		c-2.5,3.961-3,30.084-3,30.084s-5.001,35.879-10,46.878c-5,10.999-3,52.667,2,54.833c5,2.167-28.501,43.165-32,15.166
		c0,0,2.5-35.499,0-45.5c-2.5-10-5.501-102.499,0-103.5c0,0,5.5-16.999,14-30c8.5-13,11.885-69.499,11.885-69.499l1.816-78.501
		C356.441,515.21,427.24,495.71,428.24,522.71z"/>
	<path fill="#1C1C26" d="M428.24,522.71c0,0,40,8.499,57.5-3.5c0,0-5.701-44.27-10.976-45.885s-34.524-1.615-34.524-1.615
		L428.24,522.71z"/>
	<path fill="#32323E" d="M358.258,463.085c0,0-5.768,28.125-2.768,40.125s0.951,12,0.951,12s59.799-3.75,71.799,7.5
		c0,0,2.25-10.5,3.75-16.5s14.25-8.324,22.125-27.787S399.65,443.21,358.258,463.085z"/>
	<path fill="#0D332E" d="M333.65,843.197c-0.258-1.72-1.49-4.4-0.752-6.111c0.969-2.253-0.074-6.026-3.239-5.643
		c-2.792,0.34-5.7,1.093-7.581,3.357c-2.275,2.739-2.051,5.994-0.533,9.035c0.873,1.749,3.232,2.265,4.902,1.45
		c0.367,1.96,2.824,3.009,4.584,2.525C333.176,847.22,333.953,845.216,333.65,843.197z"/>
	<path fill="#297770" d="M473.011,275.79c0,0,4.354,5.908,6.229,18.227s27,17.193,6.375,54.693c0,0-3.375,40.875-9.375,58.125
		s-2.625,66,0.75,66.375s-120.465,1.5-118.732-10.125c0,0,30.607-79.875,37.732-79.875s-28.479-54.783-23.25-57
		s32.25-27.589,39.75-43.42c0,0,24.079,1.829,28.867,1.045C446.146,283.051,473.011,275.79,473.011,275.79z"/>
	<path fill="#EF9D73" d="M441.365,283.834c0,0,11.625,12.01,22.5,9.942c10.875-2.066-2.25-20.441-5.625-21.941
		S440.99,275.208,441.365,283.834z"/>
	<path fill="#FFBB88" d="M372.74,326.21c0,0-20.176-24.545-12.9-65.147s24.15-29.405,30.15-29.004s27,54.785,15.75,61.718
		C394.49,300.71,391.49,320.21,372.74,326.21z"/>
	<path fill="#EF9D73" d="M372.137,268.661c0,0,3.979,24.736,12.604,37.111s-11.156,10.943-4.547,16.909
		c0,0,23.827-21.483,27.969-32.228c4.141-10.744,0.838-8.307,0.838-8.307S371.346,275.236,372.137,268.661z"/>
	<path fill="#9B9692" d="M643.493,269.361c-0.636,3.939-3.178,6.795-5.682,6.391c-0.117-0.019-0.235-0.038-0.337-0.069l-0.003,0.015
		l-24.183-3.901l2.301-14.261l24.184,3.901l-0.003,0.015c0.106,0.003,0.226,0.021,0.343,0.04
		C642.615,261.896,644.131,265.407,643.493,269.361z"/>
	<path fill="#23201E" d="M615.344,244.832l-9.796-21.632l-15.376-11.572l-6.249-1.009l-22.741,69.047l-3.169,9.646l-2.415,7.327
		l5.419,0.622l22.645,2.626l17.087-10.009l13.049-21.224L615.344,244.832z M580.479,224.396l5.966-2.925l7.282,5.063l9.851,23.102
		l-1.397,4.187l-8.765,5.813l-3.433-1.426l-11.433-21.86L580.479,224.396z"/>
	<path d="M606.328,264.901l0.637-10.308l0.711-11.429l-8.25-20.772l-15.503-11.773l-22.19-0.591l-18.653,13.44l-9.487,16.033
		l-0.171,0.296l-1.349,18.659l-0.387,5.347l8.061,21.938l15.852,10.897l0.625,0.435l4.794,0.188l17.362,0.696l17.196-10.086
		l10.575-20.129L606.328,264.901z M543.08,260.233l16.151,2.605l3.165,6.494l-1.215,10.333l-1.057,9.041l-0.282,1.748
		c-0.592-0.19-1.198-0.588-1.83-1.144C553.241,285.132,547.386,271.552,543.08,260.233z M602.181,253.821l-8.765,5.813l-3.433-1.426
		l-11.433-21.86l1.929-11.952l5.966-2.925l7.282,5.063l9.851,23.102L602.181,253.821z"/>
	<path fill="#FFBB88" d="M410.496,275.72c4.179-2.654,8.443-5.076,12.834-7.361c3.297-1.715,6.511-3.551,9.737-5.349
		c-0.845-4.566-1.499-7.482-1.499-7.482s-5.871-45.598,3.378-48.347c9.251-2.75,13.249,3.47,19.001-1.514
		c0,0,18.75-33.479-2.25-74.228c-21-40.75-94.25-10.503-68.501,26.997l6.251,48.249l16.738,72.401
		C407.715,277.847,409.2,276.544,410.496,275.72z"/>
	<path fill="#28160B" d="M368.684,194.431c0,0-5.561-0.938-6.498,4.5s-30.324,14.467-15.725,58.515s39.1-46.792,26.35-53.278
		c0,0,3.542,0.685,4.396-2.901C378.061,197.681,371.308,191.18,368.684,194.431z"/>
	<path fill="#BABABA" d="M563.521,255.741c-0.436,2.696-2.796,4.701-5.764,5.194c-0.95,0.166-1.956,0.171-2.979,0.006l-278.9-45.003
		l2.078-12.884l279.023,45.022C561.167,248.814,564.09,252.22,563.521,255.741z"/>
	<path fill="#FFBB88" d="M249.375,194.311l-4.102-0.662c0.698-0.085,1.395-0.079,2.106,0.036
		C248.092,193.798,248.754,194.013,249.375,194.311z"/>
	<path fill="#FFBB88" d="M245.604,217.784l-0.049,0.295l-2.059-0.331C244.208,217.862,244.921,217.87,245.604,217.784z"/>
	<path fill="#23201E" d="M308.313,193.837l-12.106-27.418l-19.094-14.629l-7.774-1.255l-28.591,87.735l-3.983,12.258l-3.037,9.311
		l6.744,0.77l28.178,3.239l21.312-12.772l16.329-26.994L308.313,193.837z M264.995,168.038l7.44-3.738l9.041,6.397l12.171,29.283
		l-1.755,5.323l-10.936,7.412l-4.268-1.797l-14.144-27.703L264.995,168.038z"/>
	<path d="M238.389,216.923l-20.095-3.242c-4.317-11.668-7.345-21.438-7.345-21.438l17.03,2.748L238.389,216.923z"/>
	<polygon fill="#89837E" points="272.687,165.1 268.834,183.091 284.271,210.47 273.859,218.089 257.858,182.84 263.455,162.28 	"/>
	<path d="M297.012,219.349l0.835-13.085l0.928-14.513l-10.185-26.334l-19.251-14.882l-27.623-0.659l-23.276,17.137l-11.874,20.39
		l-0.214,0.376l-1.756,23.691l-0.503,6.786l9.946,27.814l19.688,13.769l0.777,0.55l5.967,0.22l21.61,0.812l21.45-12.872
		l13.245-25.592L297.012,219.349z M218.294,213.681l20.095,3.242l3.913,8.229l-1.554,13.119l-1.352,11.482l-0.358,2.222
		c-0.737-0.241-1.49-0.743-2.273-1.446C230.84,245.241,223.605,228.029,218.294,213.681z M291.893,205.304l-10.936,7.412
		l-4.268-1.797l-14.144-27.703l2.449-15.178l7.44-3.738l9.041,6.397l12.171,29.283L291.893,205.304z"/>
	<path fill="#9B9692" d="M254.87,207.245c-0.925,5.73-4.853,10.02-9.266,10.539c-0.684,0.086-1.396,0.078-2.107-0.036
		l-102.179-16.487c-5.226-0.844-8.577-6.917-7.508-13.55c0.928-5.745,4.855-10.034,9.27-10.553l106.311,17.154
		C253.418,196.192,255.797,201.5,254.87,207.245z"/>
	<path fill="#89837E" d="M419.839,239.167l-36.062-6.461c0,0,19.346,2.967,19.356-4.18l5.481-4.389L419.839,239.167z"/>
	<g>
		<path fill="#E5E5E5" d="M145.946,181.601c0,0,6.321,0.868,15.802,2.17c4.741,0.65,10.273,1.402,16.191,2.264
			c5.92,0.849,12.235,1.753,18.55,2.659c3.16,0.44,6.319,0.88,9.429,1.313c3.114,0.409,6.168,0.876,9.126,1.313
			c2.951,0.479,5.8,0.965,8.493,1.483c2.696,0.499,5.24,0.995,7.585,1.478c9.384,1.903,15.575,3.576,15.575,3.577l-0.048,0.296
			c0,0.001-6.403-0.358-15.91-1.503c-2.378-0.279-4.95-0.608-7.666-0.983c-2.719-0.355-5.576-0.79-8.529-1.263
			c-2.945-0.515-5.991-1.033-9.076-1.624c-3.088-0.567-6.226-1.143-9.363-1.719c-6.279-1.127-12.559-2.254-18.445-3.311
			c-5.889-1.043-11.376-2.07-16.081-2.944c-9.41-1.746-15.683-2.911-15.683-2.911L145.946,181.601z"/>
	</g>
	<g>
		<path fill="#E5E5E5" d="M181.66,195.676c0,0,4.008,0.491,10.019,1.228c6.014,0.725,14.01,1.823,22.014,2.878
			c2.002,0.253,4.005,0.507,5.976,0.756c1.974,0.234,3.913,0.485,5.782,0.774c1.867,0.304,3.667,0.621,5.366,0.979
			c1.702,0.337,3.306,0.683,4.783,1.026c5.915,1.336,9.791,2.644,9.791,2.644l-0.048,0.296c0,0-4.09,0.022-10.125-0.57
			c-1.51-0.139-3.142-0.316-4.863-0.531c-1.725-0.195-3.534-0.46-5.401-0.758c-1.865-0.314-3.785-0.686-5.732-1.084
			c-1.95-0.383-3.93-0.772-5.911-1.162c-7.929-1.516-15.865-2.989-21.801-4.192c-5.938-1.192-9.897-1.986-9.897-1.986
			L181.66,195.676z"/>
	</g>
	<path fill="#FFBB88" d="M577.282,261.121c-8.511-4.945-24.999-30.937-56.606-43.538c-31.605-12.602-23.626-18.991-35.215-9.285
		c-11.574,9.703-18.454,17.038-18.021,19.443c0.43,2.392-16.827,2.283-16.782,5.414c0.028,3.118,9.035,5.49,17.264,0.398
		c8.229-5.094,2.913,8.818,9.499,9.34c6.558,0.527-7.217,2.243-7.217,2.243l-10.717,1.929c0,0,20.569,42.738,30.104,41.525
		c0,0,30.972,10.933,75.297,1.052C609.213,279.761,585.793,266.067,577.282,261.121z M536.094,260.912
		c-5.472-1.865-28.515-2.87-28.515-2.87c-5.136-5.172-19.368-10.232-19.368-10.232c11.327-2.616,0.91-20.357,8.404-18.855
		C504.142,230.465,541.565,262.778,536.094,260.912z"/>
	<path fill="#EF9D73" d="M479.06,243.466l-11.267,2.105l16.749,15.785c0,0,25.563,10.948,5.05,27.234
		c0,0,34.689,11.582,78.125,0.391c0,0-13.261-11.467-1.111-15.94c12.151-4.472-18.213,0.42-15.689,14.445
		c2.523,14.024-46.089-7.329-64.752-27.404c-18.662-20.074-9.819-13.282-5.391-14.08L479.06,243.466z"/>
	<path fill="#EF9D73" d="M493.887,230.282c-1.011,6.748-4.487-15.041-4.487-15.041s2.344,10.201,12.995,14.339
		c10.65,4.138,34.874,24.418,37.213,30.35c0,0,14.684,3.985,18.534,7.726c3.851,3.741-11.907-4.424-27.079-7.752
		c0,0,4.596,0.635,5.031,1.009s1.948,0.216-4.083-5.224C525.979,250.25,493.871,222.305,493.887,230.282z"/>
	<path fill="#FFBB88" d="M497.516,237.797c-8.815-2.718-27.016-25.533-52.332-31.104c-25.313-5.557-28.161-16.441-47.507-10.43
		c-5.987,5.759-24.618,16.432-17.684,30.065c0,0-8.386,10.325-8.231,10.874s3.712-0.65,3.712-0.65s-3.439,11.854-0.761,12.521
		c-1.41,2.077-2.731,4.425-3.944,7.102c0,0-2.55,42.774,39.567,26.3c0,0,16.828,0.737,25.405,1.715
		c8.573,0.963,70.768-13.348,71.71-34.112C507.451,250.076,506.33,240.515,497.516,237.797z M432.85,245.4
		c-1.127,0.206-14.979-8.7-30.02-9.674c7.765-17.489,7.666-18.786,7.406-18.714c0.773-0.574,5.993-2.908,27.844,15.036
		c0,0,7.45,7.851,8.226,11.341C447.092,246.862,434.895,245.03,432.85,245.4z"/>
	<path fill="#EF9D73" d="M445.959,242.408c0,0,13.578,17.807,31.828,14.835c18.25-2.971-36.692,13.598-47.013-3.083
		c0,0-28.635,13.859-38.843-0.333c-10.207-14.193-8.068-5.139-8.068-5.139s22.646-6.794,18.967-12.962c0,0,18.131,1.812,30.02,9.674
		C432.85,245.4,448.813,246.882,445.959,242.408z"/>
	<path fill="#FFA983" d="M491.027,256.674c0,0-4.463-10.269-0.652-16.59c3.811-6.322-21.375-12.524-22.68-14.635
		s-27.5-19.752-31.77-21.292c-4.269-1.538,6.315,2.391,11.046,2.964c4.731,0.573,25.834,10.387,36.213,20.646l9.507,7.416
		c0,0,4.187,1.45,4.986,2.202C498.479,238.137,488.409,247.694,491.027,256.674z"/>
	<path fill="#EF9D73" d="M450.311,128.806c0,0-17.99,2.903-21.991,17.653s-22.144,47.445-42,37
		c-19.856-10.446,18.744-58.251,31.997-59.25C431.568,123.209,448.297,124.931,450.311,128.806z"/>
	<path fill="#EF9D73" d="M389.51,203.055c0,0,9.682-14.782,30.205-5.689s16.211,6.792,16.211,6.792l13.261,3.509
		c0,0-28.259-16.456-38.759-18.519s-7.813-5.061-4.063-8.231c3.75-3.171-19.649-4.504-19.649-4.504S388.279,203.087,389.51,203.055z
		"/>
	<path fill="#28160B" d="M450.311,128.806c0,0-18.375-7.875-25.125,10.125s-30.75,36.75-36.75,35.25s6.295,28.761-4.164,27.692
		c-10.461-1.067-15.09,0.523-15.588-12.46c-0.498-12.982-6.252-24.607,0-36.982s2.127-37.5,28.377-41.625
		S449.561,109.306,450.311,128.806z"/>
	<g>
		<path fill="#173F3F" d="M441.473,282.779c0.237,0.502,0.697,0.941,1.083,1.382c0.412,0.433,0.824,0.863,1.26,1.269
			c0.42,0.421,0.875,0.807,1.312,1.207c0.44,0.397,0.906,0.764,1.358,1.145c0.918,0.748,1.882,1.426,2.838,2.121
			c0.481,0.342,0.958,0.698,1.461,1.013c0.496,0.329,1.013,0.625,1.534,0.918c0.525,0.286,1.068,0.538,1.626,0.755
			c0.562,0.201,1.129,0.401,1.715,0.522c0.58,0.15,1.174,0.227,1.766,0.302c0.597,0.031,1.19,0.079,1.784,0.05
			c0.594,0.002,1.183-0.072,1.768-0.131c0.582-0.102,1.166-0.156,1.736-0.296c0.576-0.106,1.142-0.25,1.704-0.411
			c0.567-0.137,1.109-0.368,1.663-0.546l-0.394,0.322c0.096-0.193,0.217-0.486,0.307-0.749c0.092-0.271,0.179-0.548,0.249-0.832
			c0.165-0.559,0.269-1.14,0.348-1.724c0.086-0.583,0.153-1.174,0.165-1.77c0.018-0.297,0.021-0.596,0.013-0.896
			c-0.009-0.299,0.009-0.6-0.021-0.9c-0.047-0.6-0.08-1.205-0.177-1.805c-0.067-0.604-0.19-1.203-0.297-1.809
			c-0.107-0.606-0.303-1.191-0.426-1.803c-0.162-0.599-0.357-1.19-0.512-1.805l0.137-0.063c0.325,0.54,0.629,1.096,0.931,1.657
			c0.139,0.286,0.265,0.578,0.391,0.87c0.124,0.294,0.265,0.583,0.362,0.887c0.208,0.604,0.453,1.203,0.587,1.834
			c0.175,0.622,0.291,1.259,0.387,1.901c0.058,0.32,0.069,0.646,0.105,0.971c0.04,0.324,0.05,0.651,0.045,0.979
			c0,0.327,0.011,0.655-0.018,0.983c-0.025,0.328-0.026,0.658-0.081,0.985c-0.093,0.653-0.215,1.306-0.408,1.946
			c-0.09,0.321-0.213,0.634-0.338,0.948c-0.135,0.321-0.26,0.604-0.466,0.958l-0.15,0.258l-0.244,0.064
			c-0.607,0.161-1.198,0.372-1.817,0.487l-0.92,0.193l-0.933,0.121c-0.62,0.088-1.251,0.083-1.873,0.093
			c-0.625-0.026-1.246-0.048-1.861-0.13c-0.617-0.049-1.225-0.178-1.829-0.286c-0.603-0.122-1.202-0.25-1.794-0.407
			c-0.592-0.153-1.184-0.314-1.766-0.504c-0.59-0.17-1.167-0.377-1.754-0.569c-0.577-0.215-1.158-0.432-1.72-0.692
			c-0.565-0.252-1.129-0.52-1.665-0.833c-1.084-0.609-2.067-1.378-2.994-2.198c-0.924-0.825-1.774-1.731-2.537-2.704
			c-0.376-0.491-0.738-0.993-1.054-1.528c-0.302-0.54-0.65-1.063-0.736-1.731L441.473,282.779z"/>
	</g>
	<path fill="#EF9D73" d="M342.448,849.888c0,0-13.792-108.682,0-124.555s-1.709-42.073,15.792-47.348
		c17.5-5.275,18.367-10.525,18.367-10.525s-22.928-22.43,0.333-30.521s-36.45-82.14-8.7-105.309c27.75-23.17,51.408-10.359,60-8.92
		s-40.848-30.75-71.799-7.5c0,0-0.445,111.167-6.573,122.584s-0.259,10.793-8.819,28.122c-8.562,17.329-18.257,27.419-15.408,52.169
		c2.85,24.75-2.42,60.861,3.84,83.742c0,0,2.887,48.606-0.073,46.033C326.447,845.286,334.828,855.788,342.448,849.888z"/>
	<path fill="#297770" d="M543.66,845.567c-11.505,10.005-52.5,5.505-58.245,3.645c-5.76-1.875-8.505-0.39-8.505-0.39
		c-29.999,2.25-43.004-6-39.749-7.5c1.29-0.601,2.355-3.48,3.226-7.471c0.824-3.75,1.5-8.505,2.084-13.274
		c0.345-2.909,0.66-5.818,0.945-8.505c0.811-7.62,3.885-8.851,5.955-8.774c1.141,0.044,1.949,0.466,1.949,0.466
		s-9.539,2.37,9.631,8.054s26.743-9.99,26.743-9.99c1.547,9.495,21.211,18.75,21.211,18.75
		C517.155,831.077,555.165,835.577,543.66,845.567z"/>
	<path fill="#1F5B54" d="M442.291,840.798c0,0-1.74-1.77-1.904-6.946c-0.091-2.985,0.33-7.078,1.904-12.63
		c0.061-0.226,0.12-0.434,0.18-0.645c3.585-13.125,0.121-15.404,6.9-17.279c1.141,0.044,1.949,0.466,1.949,0.466
		s-9.539,2.37,9.631,8.054c0,0,14.743,25.696,26.761,28.98C499.712,844.097,455.416,848.764,442.291,840.798z"/>
	<path fill="#89837E" d="M440.875,831.417c0,0,37.942,3.079,36.366,8.256c-1.576,5.174,15.844-3.146,22.477,4.424
		c6.63,7.573,32.965-5.18,40.831-6.34s10.222,13.479-12.882,13.652s-35.924-2.215-44.288-2.757c-0.838-0.053-4.477-0.92-8.845,0.325
		s-33.731,1.746-37.862-6.504C436.672,842.474,435.333,833.734,440.875,831.417z"/>
	<path fill="#1C1C26" d="M399.187,471.71c0,0-28.054,9.613,0,16.807s-24.445-2.751-29.946,7.221c-5.5,9.973,44,2.771,43,16.873
		c0,0-33.598-15.4-55.799,2.6c0,0-9.666-44.649,1.816-48.824C369.74,462.21,377.633,472.71,399.187,471.71z"/>
	<path fill="#1F5B54" d="M444.023,286.25c0,0-21.346,2.96-30.064,29.96s-28.198,43.5-4.959,55
		c23.24,11.5,26.126,14.288,25.934,22.145c-0.193,7.855-36.665-14.645-36.93,10.855c-0.264,25.5-28.265,29.878-3.264,47.439
		c25,17.561,44.335,21.667,55.917,21.721c11.583,0.053-91.381,2.09-92.399-10.285c-1.018-12.375,32.482-80.125,36.982-82.125
		s-27.982-50.616-23.116-55.558c4.866-4.942,34.558-24.665,38.212-42.929c0,0,17.497,0.635,19.764,1.186
		c2.266,0.551,7.625,0.926,11.258,0.176s0.258,0.125,0.258,0.125L444.023,286.25z"/>
	<g>
		<path fill="#173F3F" d="M372.081,325.341c0,0,0.681-0.61,1.873-1.677c1.194-1.06,2.919-2.545,4.997-4.31
			c1.049-0.87,2.164-1.838,3.38-2.817c1.21-0.986,2.545-1.961,3.878-3.028c1.35-1.048,2.702-2.184,3.993-3.427
			c1.312-1.222,2.536-2.574,3.749-3.93c2.371-2.764,4.76-5.49,6.822-8.178c1.037-1.339,2.02-2.645,2.923-3.9
			c0.466-0.62,0.883-1.245,1.294-1.845c0.426-0.592,0.815-1.177,1.169-1.75c0.368-0.566,0.711-1.115,1.005-1.654
			c0.293-0.539,0.628-1.024,0.868-1.517c0.256-0.486,0.497-0.941,0.718-1.361c0.199-0.432,0.382-0.829,0.547-1.188
			c0.365-0.708,0.54-1.306,0.714-1.697c0.164-0.396,0.251-0.607,0.251-0.607l0.146,0.037c0,0-0.042,0.226-0.123,0.648
			c-0.099,0.417-0.182,1.055-0.426,1.823c-0.108,0.39-0.243,0.816-0.389,1.283c-0.173,0.455-0.361,0.948-0.561,1.475
			c-0.411,1.049-0.952,2.206-1.622,3.418c-0.32,0.617-0.673,1.246-1.063,1.883c-0.373,0.649-0.8,1.292-1.248,1.946
			c-0.433,0.666-0.905,1.329-1.416,1.985c-0.493,0.67-1.02,1.335-1.579,1.993c-1.104,1.326-2.287,2.655-3.525,3.97
			c-0.634,0.643-1.272,1.29-1.914,1.94c-0.668,0.622-1.339,1.246-2.009,1.871c-1.35,1.237-2.718,2.449-4.021,3.687
			c-1.306,1.234-2.572,2.469-3.771,3.698c-1.218,1.208-2.386,2.391-3.566,3.429c-1.181,1.038-2.347,1.96-3.428,2.804
			c-2.176,1.671-4.063,2.968-5.419,3.822c-1.355,0.857-2.164,1.296-2.164,1.296L372.081,325.341z"/>
	</g>
	<g>
		<path fill="#173F3F" d="M391.305,326.202c0,0,0.373,2.231,1.025,6.137c0.354,1.947,0.739,4.317,1.256,7.022
			c0.531,2.702,1.098,5.755,1.821,9.062c0.34,1.658,0.719,3.379,1.148,5.151c0.395,1.781,0.876,3.601,1.339,5.481
			c1.012,3.73,1.992,7.709,3.538,11.634c0.331,1.006,0.802,1.956,1.226,2.938c0.222,0.487,0.423,0.987,0.667,1.467l0.805,1.402
			l0.818,1.421c0.282,0.474,0.589,0.924,0.852,1.42c0.522,1.002,0.978,2.04,1.238,3.152c0.255,1.107,0.356,2.273,0.182,3.42
			c-0.18,1.144-0.591,2.244-1.15,3.252c-1.1,2.043-2.748,3.705-4.422,5.242c-1.686,1.541-3.472,2.946-5.15,4.42
			c-1.655,1.461-3.333,3-4.181,4.854c-0.454,0.893-0.386,1.937-0.891,3.143c-0.423,1.09-0.906,2.103-1.441,3.075
			c-1.054,1.952-2.197,3.791-3.314,5.599c-2.25,3.604-4.433,7.054-6.365,10.401c-1.907,3.356-3.594,6.593-4.843,9.706
			c-1.259,3.107-2.11,6.069-2.549,8.748c-0.432,2.681-0.415,5.071-0.149,7.003c0.029,0.49,0.151,0.937,0.226,1.366
			c0.094,0.425,0.135,0.837,0.262,1.196c0.229,0.724,0.372,1.363,0.58,1.847c0.391,0.981,0.6,1.504,0.6,1.504l-0.134,0.068
			c0,0-0.254-0.509-0.73-1.464c-0.438-0.972-1.001-2.451-1.394-4.422c-0.414-1.968-0.523-4.44-0.223-7.228
			c0.292-2.792,1.098-5.871,2.29-9.091c1.18-3.229,2.795-6.584,4.703-10.003c1.897-3.425,4.117-6.899,6.412-10.46
			c1.143-1.782,2.308-3.59,3.36-5.463c0.535-0.931,1.011-1.9,1.404-2.859c0.424-0.819,0.408-2.11,0.998-3.221
			c1.107-2.2,2.925-3.698,4.655-5.156c1.774-1.425,3.611-2.74,5.333-4.179c1.702-1.445,3.359-2.995,4.476-4.899
			c0.546-0.953,0.947-1.983,1.132-3.056c0.179-1.075,0.1-2.175-0.127-3.235c-0.219-1.069-0.696-2.068-1.193-3.017
			c-0.558-0.948-1.155-1.857-1.722-2.805l-0.861-1.405c-0.247-0.487-0.493-0.972-0.738-1.456c-0.478-0.973-1.004-1.921-1.386-2.917
			c-0.41-0.986-0.816-1.964-1.219-2.933c-0.354-0.986-0.705-1.962-1.052-2.929c-0.687-1.936-1.251-3.863-1.791-5.741
			c-1.018-3.771-1.826-7.375-2.465-10.717c-0.648-3.341-1.151-6.419-1.54-9.155c-0.383-2.736-0.706-5.123-0.912-7.095
			c-0.422-3.943-0.551-6.208-0.552-6.208L391.305,326.202z"/>
	</g>
</g>
</svg>
